<?xml version="1.0" encoding="utf-8"?>
<!-- Generator: Adobe Illustrator 27.1.1, SVG Export Plug-In . SVG Version: 6.00 Build 0)  -->
<svg version="1.1" id="Layer_1" xmlns="http://www.w3.org/2000/svg" xmlns:xlink="http://www.w3.org/1999/xlink" x="0px" y="0px"
	 viewBox="0 0 307.3 57.7" style="enable-background:new 0 0 307.3 57.7;" xml:space="preserve">
<style type="text/css">
	.st0{fill:#3B3A3C;}
	.st1{fill:#C0202F;}
	.st2{fill:#318BAD;}
</style>
<g id="Layer_2_00000037678524572989991190000015039130428774692525_">
	<g id="Layer_1-2">
		<polygon class="st0" points="291.9,12.1 288.4,15.9 288.4,15.9 285,19.8 271.5,34.9 268.9,37.7 266.3,40.7 263.7,43.5 254.5,53.8 
			251.1,57.6 235.5,57.6 239,53.8 256,34.8 258.5,32 261.1,29 263.7,26.2 269.4,19.8 274.6,19.8 266.3,29.1 263.7,32 261.1,34.8 
			258.5,37.7 244.1,53.8 249.4,53.8 261.1,40.7 263.7,37.8 266.3,34.8 268.9,32 279.8,19.8 283.2,15.9 267.7,15.9 271.2,12.1 		"/>
		<polygon class="st1" points="291.9,57.6 276.3,57.6 272.9,53.8 266.3,46.4 267,45.7 268.9,43.5 278,53.8 283.2,53.8 271.5,40.6 
			274.1,37.7 288.4,53.8 		"/>
		<polygon class="st1" points="249.4,15.9 244.2,15.9 255.9,29.1 253.4,32 239,15.9 235.5,12.1 251.1,12.1 254.5,15.9 261.1,23.3 
			258.5,26.2 		"/>
		<path class="st2" d="M104.3,12.1l-16,41.1c-1.1,2.7-3.7,4.5-6.6,4.5l0,0c-2.9,0-5.5-1.8-6.6-4.5l-16-41.1H68l13.5,34.6
			c0.1,0.2,0.2,0.3,0.4,0.2c0.1,0,0.2-0.1,0.2-0.2l13.5-34.6C95.6,12.1,104.3,12.1,104.3,12.1z"/>
		<path class="st2" d="M37,12.1c-11.8,0-21.4,9.6-21.4,21.4v24.2h8.2V33.4c0-7.3,5.9-13.2,13.2-13.2s13.2,5.9,13.2,13.2v24.2h8.2
			V33.4C58.4,21.6,48.8,12.1,37,12.1z"/>
		<path class="st2" d="M144.7,12.1c-11.8,0-21.4,9.6-21.4,21.4v24.2h8.2V33.4c0.2-7.3,6.3-13,13.6-12.8c7,0.2,12.6,5.8,12.8,12.8
			v24.2h8.2V33.4C166,21.6,156.5,12.1,144.7,12.1z"/>
		<path class="st2" d="M194.1,49.5c-8.1,0-14.6-6.5-14.6-14.6S186,20.3,194,20.3c4.8,0,9.4,2.4,12.1,6.4h9.2
			c-4.5-11.7-17.7-17.6-29.4-13.1S168.3,31.3,172.8,43s17.7,17.6,29.4,13.1c6-2.3,10.8-7.1,13.1-13.1h-9.2
			C203.4,47,198.9,49.4,194.1,49.5z"/>
		<rect y="12.1" class="st2" width="8.2" height="45.6"/>
		<circle class="st2" cx="4.1" cy="4.1" r="4.1"/>
		<rect x="108.7" y="12.1" class="st2" width="8.2" height="45.6"/>
		<circle class="st2" cx="112.8" cy="4.1" r="4.1"/>
		<rect x="221.2" y="12.1" class="st2" width="8.2" height="45.6"/>
		<circle class="st2" cx="225.3" cy="4.1" r="4.1"/>
	</g>
</g>
<path class="st0" d="M301.3,12.1c-3.3,0-6-2.7-6-6s2.7-6,6-6s6,2.7,6,6S304.6,12.1,301.3,12.1z M301.3,1c-2.8,0-5.1,2.3-5.1,5.1
	s2.3,5.1,5.1,5.1c2.8,0,5.1-2.3,5.1-5.1S304.1,1,301.3,1z"/>
<g>
	<path class="st0" d="M299.6,2.7c0.5-0.1,1.1-0.1,1.7-0.1c1,0,1.6,0.2,2,0.6c0.4,0.3,0.6,0.8,0.6,1.3c0,0.9-0.6,1.5-1.3,1.8l0,0
		c0.5,0.2,0.9,0.7,1,1.4c0.2,1,0.4,1.7,0.5,1.9h-0.9c-0.1-0.2-0.3-0.8-0.5-1.7c-0.2-1-0.6-1.3-1.4-1.4h-0.9v3h-0.9L299.6,2.7
		L299.6,2.7z M300.5,5.9h0.9c1,0,1.6-0.5,1.6-1.3c0-0.9-0.7-1.3-1.6-1.3c-0.4,0-0.7,0-0.9,0.1V5.9z"/>
</g>
</svg>
